<svg xmlns="http://www.w3.org/2000/svg" width="460.34" height="512" viewBox="0 0 460.34 512">
  <g id="illustration" transform="translate(-25.83)">
    <path id="Path_3835" data-name="Path 3835" d="M470.754,209.143C462.332,132.08,412.144,61.021,336.66,30.726H446.367a7.732,7.732,0,0,0,0-15.464H65.633a7.732,7.732,0,0,0,0,15.464H176.486C101.072,60.993,50.819,132.024,42.392,209.143a7.732,7.732,0,0,0,6.846,8.526,7.876,7.876,0,0,0,.85.046,7.733,7.733,0,0,0,7.676-6.893c10.085-92.287,84.382-168.707,176.661-178.87a7.686,7.686,0,0,0,3.394-1.226h37.509a7.682,7.682,0,0,0,3.394,1.226C371,42.115,445.3,118.535,455.383,210.822a7.734,7.734,0,0,0,7.676,6.893,7.89,7.89,0,0,0,.85-.046A7.732,7.732,0,0,0,470.754,209.143Z" fill="#827ae0"/>
    <path id="Path_3836" data-name="Path 3836" d="M389.95,276.267,263.118,90.141a7.3,7.3,0,0,0-12.064,0L124.222,276.267a20.722,20.722,0,0,0,2.369,26.218l60.425,61.275a19.835,19.835,0,0,1,5.712,13.927v34.3H321.441v-34.3a19.836,19.836,0,0,1,5.711-13.926l60.427-61.277A20.719,20.719,0,0,0,389.95,276.267Z" fill="#ffd061"/>
    <path id="Path_3837" data-name="Path 3837" d="M207.635,363.76,147.21,302.485a20.721,20.721,0,0,1-2.37-26.218L267.395,96.418l-4.277-6.277a7.3,7.3,0,0,0-12.064,0L124.222,276.267a20.721,20.721,0,0,0,2.37,26.218l60.425,61.275a19.835,19.835,0,0,1,5.712,13.927v34.3h20.618v-34.3A19.833,19.833,0,0,0,207.635,363.76Z" fill="#e9b335"/>
    <g id="Group_1413" data-name="Group 1413">
      <path id="Path_3838" data-name="Path 3838" d="M263.118,90.141a7.3,7.3,0,0,0-12.064,0l-1.7,2.5V304.168a7.732,7.732,0,0,0,15.464,0V92.635Z" fill="#e8a300"/>
      <path id="Path_3839" data-name="Path 3839" d="M267.762,284.892H246.41a19.276,19.276,0,1,0,0,38.552h21.353a19.276,19.276,0,1,0,0-38.552Z" fill="#e59f23"/>
    </g>
    <path id="Path_3840" data-name="Path 3840" d="M267.762,303.056H246.41a19.244,19.244,0,0,1-16.338-9.082,19.249,19.249,0,0,0,16.338,29.47h21.353a19.249,19.249,0,0,0,16.338-29.47A19.246,19.246,0,0,1,267.762,303.056Z" fill="#d38913"/>
    <path id="Path_3841" data-name="Path 3841" d="M204.743,466.682v34.091A11.227,11.227,0,0,0,215.97,512H298.2a11.226,11.226,0,0,0,11.227-11.227V466.682Z" fill="#e4eaf8"/>
    <g id="Group_1414" data-name="Group 1414">
      <path id="Path_3842" data-name="Path 3842" d="M225.36,500.773v-34.09H204.742v34.09A11.227,11.227,0,0,0,215.969,512h20.618A11.228,11.228,0,0,1,225.36,500.773Z" fill="#d8dce5"/>
      <path id="Path_3843" data-name="Path 3843" d="M326.3,411.076H187.875A12.407,12.407,0,0,0,175.5,423.447v31.442a12.407,12.407,0,0,0,12.371,12.371H326.3a12.407,12.407,0,0,0,12.371-12.371V423.447A12.407,12.407,0,0,0,326.3,411.076Z" fill="#d8dce5"/>
    </g>
    <path id="Path_3844" data-name="Path 3844" d="M326.3,446.642H187.875A12.407,12.407,0,0,1,175.5,434.271v20.618a12.407,12.407,0,0,0,12.371,12.371H326.3a12.407,12.407,0,0,0,12.371-12.371V434.271A12.407,12.407,0,0,1,326.3,446.642Z" fill="#c3c8d1"/>
    <path id="Path_3845" data-name="Path 3845" d="M59.726,207.922h-21.8A12.093,12.093,0,0,0,25.83,220.015v21.8A12.093,12.093,0,0,0,37.923,253.91h21.8a12.093,12.093,0,0,0,12.093-12.093v-21.8A12.093,12.093,0,0,0,59.726,207.922Z" fill="#df458e"/>
    <path id="Path_3846" data-name="Path 3846" d="M46.448,241.817v-21.8a12.093,12.093,0,0,1,12.093-12.093H37.923A12.093,12.093,0,0,0,25.83,220.015v21.8A12.093,12.093,0,0,0,37.923,253.91H58.541A12.093,12.093,0,0,1,46.448,241.817Z" fill="#fa70b2"/>
    <circle id="Ellipse_333" data-name="Ellipse 333" cx="22.994" cy="22.994" r="22.994" transform="translate(25.83 0)" fill="#df458e"/>
    <path id="Path_3847" data-name="Path 3847" d="M46.448,22.994A22.988,22.988,0,0,1,59.134,2.441a22.995,22.995,0,1,0,0,41.1A22.985,22.985,0,0,1,46.448,22.994Z" fill="#fa70b2"/>
    <path id="Path_3848" data-name="Path 3848" d="M474.077,207.922h-21.8a12.093,12.093,0,0,0-12.093,12.093v21.8a12.093,12.093,0,0,0,12.093,12.093h21.8a12.093,12.093,0,0,0,12.093-12.093v-21.8A12.093,12.093,0,0,0,474.077,207.922Z" fill="#df458e"/>
    <path id="Path_3849" data-name="Path 3849" d="M460.8,241.817v-21.8a12.093,12.093,0,0,1,12.093-12.093H452.274a12.093,12.093,0,0,0-12.093,12.093v21.8a12.093,12.093,0,0,0,12.093,12.093h20.618A12.093,12.093,0,0,1,460.8,241.817Z" fill="#fa70b2"/>
    <path id="Path_3850" data-name="Path 3850" d="M267.474,0h-21.8a12.093,12.093,0,0,0-12.093,12.093V33.9a12.093,12.093,0,0,0,12.093,12.093h21.8a12.093,12.093,0,0,0,12.093-12.093v-21.8A12.093,12.093,0,0,0,267.474,0Z" fill="#df458e"/>
    <path id="Path_3851" data-name="Path 3851" d="M254.2,33.9v-21.8A12.093,12.093,0,0,1,266.289,0H245.671a12.093,12.093,0,0,0-12.093,12.093V33.9a12.093,12.093,0,0,0,12.093,12.093h20.618A12.092,12.092,0,0,1,254.2,33.9Z" fill="#fa70b2"/>
    <circle id="Ellipse_334" data-name="Ellipse 334" cx="22.994" cy="22.994" r="22.994" transform="translate(440.076 0.206)" fill="#df458e"/>
    <path id="Path_3852" data-name="Path 3852" d="M460.691,23.195A22.988,22.988,0,0,1,473.377,2.642a22.994,22.994,0,1,0,0,41.1A22.983,22.983,0,0,1,460.691,23.195Z" fill="#fa70b2"/>
  </g>
</svg>
